<?xml version="1.0" encoding="UTF-8"?>
<svg version="1.1" xmlns="http://www.w3.org/2000/svg" width="32" height="32">
<path d="M0 0 C0.33 0 0.66 0 1 0 C1 1.98 1 3.96 1 6 C1.66 6 2.32 6 3 6 C3 4.68 3 3.36 3 2 C3.66 2 4.32 2 5 2 C5 3.32 5 4.64 5 6 C5.66 6 6.32 6 7 6 C7 4.02 7 2.04 7 0 C10 3.625 10 3.625 10 7 C10.66 7 11.32 7 12 7 C12 7.66 12 8.32 12 9 C12.99 8.67 13.98 8.34 15 8 C18.58452138 23.90631365 18.58452138 23.90631365 15 30 C13.125 30.9375 13.125 30.9375 11 31 C8.75 30.0625 8.75 30.0625 7 29 C6.34 29.99 5.68 30.98 5 32 C4.34 32 3.68 32 3 32 C2.67 31.01 2.34 30.02 2 29 C1.2575 29.350625 0.515 29.70125 -0.25 30.0625 C-3 31 -3 31 -5.1875 30.9375 C-7 30 -7 30 -8.25 27.875 C-10.02815714 21.05873098 -8.51309398 14.71435452 -7 8 C-6.01 8.33 -5.02 8.66 -4 9 C-4 8.01 -4 7.02 -4 6 C-3.34 5.67 -2.68 5.34 -2 5 C-1.27840576 3.35636866 -0.60648579 1.68949614 0 0 Z " fill="#551E0F" transform="translate(12,0)"/>
<path d="M0 0 C1.43088528 2.86177057 0.59991697 4.93375773 0 8 C-0.66 8 -1.32 8 -2 8 C-2.33 8.99 -2.66 9.98 -3 11 C-6.33333333 11 -9.66666667 11 -13 11 C-16.16072105 12.25944653 -16.16072105 12.25944653 -18 15 C-17.01 15 -16.02 15 -15 15 C-14.67 14.34 -14.34 13.68 -14 13 C-10.7 13 -7.4 13 -4 13 C-4 13.66 -4 14.32 -4 15 C-3.01 14.67 -2.02 14.34 -1 14 C-1 13.34 -1 12.68 -1 12 C-0.01 11.67 0.98 11.34 2 11 C1.25 16.75 1.25 16.75 -1 19 C-1.825 18.979375 -2.65 18.95875 -3.5 18.9375 C-4.325 18.958125 -5.15 18.97875 -6 19 C-6.66 19.99 -7.32 20.98 -8 22 C-8.66 22 -9.32 22 -10 22 C-10.33 21.01 -10.66 20.02 -11 19 C-11.7425 19.350625 -12.485 19.70125 -13.25 20.0625 C-16 21 -16 21 -18.1875 20.9375 C-20 20 -20 20 -21.25 17.875 C-22.13162656 14.49543152 -22.13640927 11.47843626 -22 8 C-21.34 8 -20.68 8 -20 8 C-19.67 5.69 -19.34 3.38 -19 1 C-14.545 1.99 -14.545 1.99 -10 3 C-9.67 2.34 -9.34 1.68 -9 1 C-8.34 1.66 -7.68 2.32 -7 3 C-4.69 2.01 -2.38 1.02 0 0 Z " fill="#782610" transform="translate(25,10)"/>
<path d="M0 0 C1.43088528 2.86177057 0.59991697 4.93375773 0 8 C-0.66 8 -1.32 8 -2 8 C-2.33 8.99 -2.66 9.98 -3 11 C-6.3125 11.25 -6.3125 11.25 -10 11 C-11.75 9 -11.75 9 -13 7 C-13.99 7 -14.98 7 -16 7 C-16.66 5.35 -17.32 3.7 -18 2 C-15.36 2.33 -12.72 2.66 -10 3 C-9.67 2.34 -9.34 1.68 -9 1 C-8.34 1.66 -7.68 2.32 -7 3 C-4.69 2.01 -2.38 1.02 0 0 Z " fill="#933A1F" transform="translate(25,10)"/>
<path d="M0 0 C1.20628008 2.33214148 2.1654738 4.49642139 3 7 C6.00740099 7.09403614 6.00740099 7.09403614 8.9375 6.4375 C11.7763767 6.03194619 13.33886482 6.07883782 16 7 C16.33 6.34 16.66 5.68 17 5 C17 5.66 17 6.32 17 7 C17.66 7 18.32 7 19 7 C19 7.99 19 8.98 19 10 C18.360625 10.12375 17.72125 10.2475 17.0625 10.375 C16.381875 10.58125 15.70125 10.7875 15 11 C14.67 11.66 14.34 12.32 14 13 C13.34 13 12.68 13 12 13 C11.67 12.01 11.34 11.02 11 10 C10.2575 10.350625 9.515 10.70125 8.75 11.0625 C6 12 6 12 3.8125 11.9375 C2 11 2 11 0.75 8.8125 C-0.06408712 5.75967331 -0.14631766 3.14582965 0 0 Z " fill="#44200D" transform="translate(3,19)"/>
<path d="M0 0 C0.95027599 2.85082796 1.29191216 5.21103374 1.5625 8.1875 C1.68818359 9.53908203 1.68818359 9.53908203 1.81640625 10.91796875 C1.87699219 11.60503906 1.93757813 12.29210938 2 13 C0.68 12.67 -0.64 12.34 -2 12 C-2 11.34 -2 10.68 -2 10 C-4.97 10 -7.94 10 -11 10 C-11.33 10.66 -11.66 11.32 -12 12 C-13.32 12 -14.64 12 -16 12 C-15.67 11.01 -15.34 10.02 -15 9 C-11.9375 7.8125 -11.9375 7.8125 -9 7 C-9 5.35 -9 3.7 -9 2 C-8.67 2 -8.34 2 -8 2 C-8 3.98 -8 5.96 -8 8 C-5.69 8 -3.38 8 -1 8 C-1.020625 7.05125 -1.04125 6.1025 -1.0625 5.125 C-1 2 -1 2 0 0 Z " fill="#461E0E" transform="translate(23,13)"/>
<path d="M0 0 C1 3 1 3 -0.3125 5.6875 C-0.869375 6.450625 -1.42625 7.21375 -2 8 C-2.66 8 -3.32 8 -4 8 C-4 7.01 -4 6.02 -4 5 C-7.96 5 -11.92 5 -16 5 C-15.67 4.01 -15.34 3.02 -15 2 C-11.7 2 -8.4 2 -5 2 C-5 2.66 -5 3.32 -5 4 C-4.01 3.67 -3.02 3.34 -2 3 C-2 2.34 -2 1.68 -2 1 C-1.34 0.67 -0.68 0.34 0 0 Z " fill="#7F471D" transform="translate(26,21)"/>
<path d="M0 0 C2.60334924 2.71182212 2.99456691 3.89133813 3.1875 7.75 C3.125625 8.8225 3.06375 9.895 3 11 C3.66 11.33 4.32 11.66 5 12 C3.02 12.33 1.04 12.66 -1 13 C-1 14.98 -1 16.96 -1 19 C-1.33 19 -1.66 19 -2 19 C-2.33 16.03 -2.66 13.06 -3 10 C-2.34 9.67 -1.68 9.34 -1 9 C-1 9.99 -1 10.98 -1 12 C-0.03929566 9.11788698 0.10581883 7.30149956 0.0625 4.3125 C0.05347656 3.50425781 0.04445313 2.69601563 0.03515625 1.86328125 C0.02355469 1.24839844 0.01195312 0.63351563 0 0 Z " fill="#30130C" transform="translate(19,0)"/>
<path d="M0 0 C2 2 2 2 2 6 C1.34 6 0.68 6 0 6 C-0.66 6.66 -1.32 7.32 -2 8 C-2.33 7.34 -2.66 6.68 -3 6 C-3.99 6 -4.98 6 -6 6 C-6.66 4.35 -7.32 2.7 -8 1 C-5.36 1.33 -2.72 1.66 0 2 C0 1.34 0 0.68 0 0 Z " fill="#AD422A" transform="translate(15,11)"/>
<path d="M0 0 C0.33 0 0.66 0 1 0 C1 2.64 1 5.28 1 8 C0.01 8 -0.98 8 -2 8 C-2.33 8.66 -2.66 9.32 -3 10 C-4.32 10 -5.64 10 -7 10 C-6.67 9.01 -6.34 8.02 -6 7 C-2.9375 5.8125 -2.9375 5.8125 0 5 C0 3.35 0 1.7 0 0 Z " fill="#2C1208" transform="translate(14,15)"/>
<path d="M0 0 C0.66 0 1.32 0 2 0 C1.38461538 5.53846154 1.38461538 5.53846154 -0.5625 7.875 C-1.2740625 8.431875 -1.2740625 8.431875 -2 9 C-2.99 8.67 -3.98 8.34 -5 8 C-4.54625 7.608125 -4.0925 7.21625 -3.625 6.8125 C-1.72357081 4.69167513 -0.93795972 2.66957765 0 0 Z " fill="#2F0E07" transform="translate(27,22)"/>
<path d="M0 0 C1.14889133 3.93905597 1.52582695 7.93565958 2 12 C0.68 11.67 -0.64 11.34 -2 11 C-1.85892253 9.54119891 -1.71197585 8.08296449 -1.5625 6.625 C-1.48128906 5.81289062 -1.40007813 5.00078125 -1.31640625 4.1640625 C-1 2 -1 2 0 0 Z " fill="#2B0B09" transform="translate(12,0)"/>
<path d="M0 0 C0.66666667 1.33333333 1.33333333 2.66666667 2 4 C2.37125 4.680625 2.7425 5.36125 3.125 6.0625 C4 8 4 8 4 11 C4.66 11.33 5.32 11.66 6 12 C4.125 11.8125 4.125 11.8125 2 11 C-0.09242143 7.3382625 -0.19324053 4.15467129 0 0 Z " fill="#200B05" transform="translate(3,19)"/>
<path d="M0 0 C0.33 0 0.66 0 1 0 C1 2.64 1 5.28 1 8 C1.66 8 2.32 8 3 8 C3.33 7.34 3.66 6.68 4 6 C4 7.32 4 8.64 4 10 C2.35 10 0.7 10 -1 10 C-0.67 6.7 -0.34 3.4 0 0 Z " fill="#652910" transform="translate(25,12)"/>
<path d="M0 0 C0.33 0.66 0.66 1.32 1 2 C1.66 2 2.32 2 3 2 C3 2.99 3 3.98 3 5 C1.35 5.33 -0.3 5.66 -2 6 C-2 5.01 -2 4.02 -2 3 C-2.66 2.67 -3.32 2.34 -4 2 C-2.68 2 -1.36 2 0 2 C0 1.34 0 0.68 0 0 Z " fill="#331B0C" transform="translate(19,24)"/>
<path d="M0 0 C1.485 0.99 1.485 0.99 3 2 C2.67 2.66 2.34 3.32 2 4 C2.99 4.33 3.98 4.66 5 5 C4.01 6.485 4.01 6.485 3 8 C3 7.34 3 6.68 3 6 C2.01 5.67 1.02 5.34 0 5 C0 3.35 0 1.7 0 0 Z " fill="#A53810" transform="translate(5,21)"/>
<path d="M0 0 C0.99 1.32 1.98 2.64 3 4 C-0.875 7 -0.875 7 -2 7 C-2.125 4.625 -2.125 4.625 -2 2 C-1.34 1.34 -0.68 0.68 0 0 Z " fill="#6E2F13" transform="translate(11,15)"/>
</svg>
